<?xml version="1.0" encoding="UTF-8"?><svg id="Layer_1" xmlns="http://www.w3.org/2000/svg" viewBox="0 0 200 200"><defs><style>.cls-1{fill:#231f20;}.cls-2{fill:none;stroke:#231f20;stroke-miterlimit:10;stroke-width:4px;}</style></defs><path class="cls-1" d="M112.8,151.94c0,15.86-5.48,22.38-12.24,22.38s-12.24-6.52-12.24-22.38,12.24-51.94,12.24-51.94c0,0,12.24,36.08,12.24,51.94Z"/><path class="cls-1" d="M88.29,48.08c-.02-15.86,5.45-22.39,12.21-22.4,6.76,0,12.25,6.5,12.28,22.36.02,15.86-12.17,51.95-12.17,51.95,0,0-12.29-36.06-12.32-51.92Z"/><path class="cls-1" d="M48.6,111.48c-15.86,0-22.38-5.48-22.38-12.24s6.52-12.24,22.38-12.24,51.94,12.24,51.94,12.24c0,0-36.08,12.24-51.94,12.24Z"/><path class="cls-1" d="M152.45,86.98c15.86-.02,22.39,5.45,22.4,12.21s-6.5,12.25-22.36,12.28-51.95-12.17-51.95-12.17c0,0,36.06-12.29,51.92-12.32Z"/><circle class="cls-2" cx="100.55" cy="100" r="84.34"/><circle class="cls-1" cx="87.28" cy="86.5" r="2.95"/><circle class="cls-1" cx="112.68" cy="86.5" r="2.95"/><circle class="cls-1" cx="87.29" cy="111.99" r="2.95"/><circle class="cls-1" cx="112.69" cy="111.99" r="2.95"/></svg>