<?xml version="1.0" encoding="UTF-8"?><svg id="Layer_1" xmlns="http://www.w3.org/2000/svg" viewBox="0 0 200 200"><defs><style>.cls-1{fill:#231f20;}.cls-2{fill:none;stroke:#231f20;stroke-miterlimit:10;stroke-width:4px;}</style></defs><path class="cls-1" d="M111.73,151.94c0,15.86-5.48,22.38-12.24,22.38s-12.24-6.52-12.24-22.38,12.24-51.94,12.24-51.94c0,0,12.24,36.08,12.24,51.94Z"/><path class="cls-1" d="M87.22,48.08c-.02-15.86,5.45-22.39,12.21-22.4s12.25,6.5,12.28,22.36c.02,15.86-12.17,51.95-12.17,51.95,0,0-12.29-36.06-12.32-51.92Z"/><path class="cls-1" d="M47.53,111.48c-15.86,0-22.38-5.48-22.38-12.24s6.52-12.24,22.38-12.24,51.94,12.24,51.94,12.24c0,0-36.08,12.24-51.94,12.24Z"/><path class="cls-1" d="M151.39,86.98c15.86-.02,22.39,5.45,22.4,12.21s-6.5,12.25-22.36,12.28-51.95-12.17-51.95-12.17c0,0,36.06-12.29,51.92-12.32Z"/><path class="cls-1" d="M126.1,52.66c10.72-11.68,19.17-12.78,24.15-8.21s4.61,13.08-6.11,24.77c-10.72,11.68-44.14,29.99-44.14,29.99,0,0,15.37-34.86,26.1-46.54Z"/><path class="cls-1" d="M73.93,145.75c-10.71,11.7-19.15,12.81-24.14,8.24s-4.63-13.08,6.07-24.77c10.71-11.7,44.09-30.05,44.09-30.05,0,0-15.32,34.88-26.03,46.58Z"/><path class="cls-1" d="M146.05,125.88c11.68,10.72,12.78,19.17,8.21,24.15s-13.08,4.61-24.77-6.11-29.99-44.14-29.99-44.14c0,0,34.86,15.37,46.54,26.1Z"/><path class="cls-1" d="M52.96,73.71c-11.7-10.71-12.81-19.15-8.24-24.14s13.08-4.63,24.77,6.07c11.7,10.71,30.05,44.09,30.05,44.09,0,0-34.88-15.32-46.58-26.03Z"/><circle class="cls-2" cx="100" cy="100" r="84.34"/></svg>