<?xml version="1.0" encoding="UTF-8"?><svg id="Layer_1" xmlns="http://www.w3.org/2000/svg" viewBox="0 0 200 200"><defs><style>.cls-1{fill:#231f20;}.cls-2{fill:none;stroke:#231f20;stroke-miterlimit:10;stroke-width:4px;}</style></defs><path class="cls-1" d="M106.44,151.94c0,15.86-2.63,22.38-5.88,22.38s-5.88-6.52-5.88-22.38,5.88-51.94,5.88-51.94c0,0,5.88,36.08,5.88,51.94Z"/><path class="cls-1" d="M94.67,48.08c-.01-15.86,2.62-22.39,5.86-22.4s5.88,6.5,5.89,22.36-5.84,51.95-5.84,51.95c0,0-5.9-36.06-5.91-51.92Z"/><path class="cls-1" d="M48.62,105.88c-15.86,0-22.38-2.63-22.38-5.88s6.52-5.88,22.38-5.88,51.94,5.88,51.94,5.88c0,0-36.08,5.88-51.94,5.88Z"/><path class="cls-1" d="M152.48,94.11c15.86-.01,22.39,2.62,22.4,5.86,0,3.25-6.5,5.88-22.36,5.89-15.86.01-51.95-5.84-51.95-5.84,0,0,36.06-5.9,51.92-5.91Z"/><path class="cls-1" d="M67.98,140.89c-11.21,11.21-17.68,13.96-19.98,11.67s.45-8.77,11.67-19.98,40.88-32.57,40.88-32.57c0,0-21.36,29.67-32.57,40.88Z"/><path class="cls-1" d="M133.1,59.13c11.21-11.22,17.68-13.98,19.98-11.69s-.44,8.76-11.64,19.98-40.87,32.61-40.87,32.61c0,0,21.33-29.67,32.53-40.89Z"/><path class="cls-1" d="M59.67,67.44c-11.21-11.21-13.96-17.68-11.67-19.98s8.77.45,19.98,11.67c11.21,11.21,32.57,40.88,32.57,40.88,0,0-29.67-21.36-40.88-32.57Z"/><path class="cls-1" d="M141.43,132.56c11.22,11.21,13.98,17.68,11.69,19.98s-8.76-.44-19.98-11.64c-11.22-11.21-32.61-40.87-32.61-40.87,0,0,29.67,21.33,40.89,32.53Z"/><path class="cls-1" d="M55.55,126.6c-14.47,6.48-21.5,6.74-22.83,3.78s3.55-8.03,18.02-14.51c14.47-6.48,49.81-15.86,49.81-15.86,0,0-30.53,20.11-45,26.59Z"/><path class="cls-1" d="M145.53,73.42c14.47-6.49,21.5-6.76,22.84-3.8s-3.53,8.03-18,14.52c-14.47,6.49-49.81,15.9-49.81,15.9,0,0,30.5-20.12,44.97-26.61Z"/><path class="cls-1" d="M73.97,55.01c-6.48-14.47-6.74-21.5-3.78-22.83,2.96-1.33,8.03,3.55,14.51,18.02,6.48,14.47,15.86,49.81,15.86,49.81,0,0-20.11-30.53-26.59-45Z"/><path class="cls-1" d="M127.14,144.99c6.49,14.47,6.76,21.5,3.8,22.84-2.96,1.34-8.03-3.53-14.52-18-6.49-14.47-15.9-49.81-15.9-49.81,0,0,20.12,30.5,26.61,44.97Z"/><path class="cls-1" d="M49.92,86.98c-14.82-5.65-19.97-10.44-18.81-13.47s8.19-3.17,23,2.49c14.82,5.65,46.43,24.01,46.43,24.01,0,0-35.8-7.37-50.62-13.02Z"/><path class="cls-1" d="M151.15,113.01c14.82,5.64,19.98,10.42,18.83,13.46s-8.17,3.18-22.99-2.46c-14.82-5.64-46.46-23.98-46.46-23.98,0,0,35.8,7.34,50.62,12.98Z"/><path class="cls-1" d="M113.56,49.39c5.65-14.82,10.44-19.97,13.47-18.81,3.03,1.16,3.17,8.19-2.49,23s-24.01,46.43-24.01,46.43c0,0,7.37-35.8,13.02-50.62Z"/><path class="cls-1" d="M87.54,150.61c-5.64,14.82-10.42,19.98-13.46,18.83s-3.18-8.17,2.46-22.99c5.64-14.82,23.98-46.46,23.98-46.46,0,0-7.34,35.8-12.98,50.62Z"/><circle class="cls-1" cx="100.57" cy="100.03" r="84.34"/></svg>