<?xml version="1.0" encoding="UTF-8"?><svg id="Layer_1" xmlns="http://www.w3.org/2000/svg" viewBox="0 0 200 200"><defs><style>.cls-1{fill:#231f20;}</style></defs><path class="cls-1" d="M161.37,78.93c-2.72,0-5.35.43-7.81,1.23.4-1.79.62-3.64.62-5.55,0-14.03-11.37-25.4-25.4-25.4-1.18,0-2.34.09-3.47.24.47-1.94.73-3.96.73-6.04,0-14.03-11.37-25.4-25.4-25.4s-25.4,11.37-25.4,25.4c0,2.34.32,4.61.92,6.76-2.2-.62-4.51-.96-6.91-.96-14.03,0-25.4,11.37-25.4,25.4,0,2.23.29,4.39.83,6.45-1.72-.37-3.51-.57-5.34-.57-14.03,0-25.4,11.37-25.4,25.4s11.37,25.4,25.4,25.4c1.15,0,2.27-.08,3.38-.23,3.46,9.91,12.89,17.03,23.98,17.03,2.87,0,5.63-.48,8.2-1.36-.61,2.18-.95,4.48-.95,6.86,0,14.03,11.37,25.4,25.4,25.4s25.4-11.37,25.4-25.4c0-2.35-.33-4.63-.92-6.79,1.24.19,2.52.29,3.81.29,11.84,0,21.78-8.1,24.6-19.05,2.83,1.09,5.91,1.7,9.13,1.7,14.03,0,25.4-11.37,25.4-25.4s-11.37-25.4-25.4-25.4Z"/></svg>