<?xml version="1.0" encoding="UTF-8"?><svg id="Layer_1" xmlns="http://www.w3.org/2000/svg" viewBox="0 0 200 200"><defs><style>.cls-1{fill:#231f20;}</style></defs><path class="cls-1" d="M152.37,67.42c-4.83,0-9.44.96-13.66,2.68-8.02-12.95-22.36-21.59-38.72-21.59s-30.22,8.36-38.31,20.96c-3.76-1.33-7.79-2.05-12-2.05-19.92,0-36.06,16.15-36.06,36.06s16.15,36.06,36.06,36.06c8.99,0,17.2-3.3,23.52-8.73,7.52,5.49,16.78,8.73,26.8,8.73,10.52,0,20.2-3.58,27.91-9.57,6.43,5.94,15.02,9.57,24.46,9.57,19.92,0,36.06-16.15,36.06-36.06s-16.15-36.06-36.06-36.06Z"/></svg>