<?xml version="1.0" encoding="UTF-8"?><svg id="Layer_1" xmlns="http://www.w3.org/2000/svg" viewBox="0 0 200 200"><defs><style>.cls-1{fill:#231f20;}</style></defs><path class="cls-1" d="M184.89,88.31c0-17.62-14.28-31.9-31.9-31.9-9.64,0-18.27,4.28-24.12,11.04-4.95-11.21-16.15-19.04-29.19-19.04s-23.79,7.51-28.89,18.36c-5.83-6.37-14.21-10.36-23.53-10.36-17.62,0-31.9,14.28-31.9,31.9,0,15.52,11.08,28.44,25.76,31.31-.02.47-.04.95-.04,1.43,0,17.62,14.28,31.9,31.9,31.9,10.49,0,19.8-5.07,25.62-12.89,5.81,7.82,15.12,12.89,25.62,12.89,17.62,0,31.9-14.28,31.9-31.9,0-.33-.01-.66-.02-.99,16.16-1.56,28.8-15.18,28.8-31.75Z"/></svg>