<?xml version="1.0" encoding="UTF-8"?><svg id="Layer_1" xmlns="http://www.w3.org/2000/svg" viewBox="0 0 200 200"><defs><style>.cls-1{fill:#231f20;}</style></defs><path class="cls-1" d="M136.91,65.65c-.39,0-.78.02-1.17.03.09-1.02.14-2.05.14-3.09,0-19.82-16.06-35.88-35.88-35.88s-35.88,16.06-35.88,35.88c0,0,0,.02,0,.03-.34,0-.68-.03-1.03-.03-19.82,0-35.88,16.06-35.88,35.88s16.06,35.88,35.88,35.88c.39,0,.78-.02,1.17-.03-.09,1.02-.14,2.05-.14,3.09,0,19.82,16.06,35.88,35.88,35.88s35.88-16.06,35.88-35.88c0,0,0-.02,0-.03.34,0,.68.03,1.03.03,19.82,0,35.88-16.06,35.88-35.88s-16.06-35.88-35.88-35.88Z"/></svg>