<?xml version="1.0" encoding="UTF-8"?><svg id="Layer_1" xmlns="http://www.w3.org/2000/svg" viewBox="0 0 200 200"><defs><style>.cls-1{fill:#231f20;}</style></defs><path class="cls-1" d="M184.77,97.23c0-16.03-11.82-29.29-27.22-31.56-2.13-15.56-15.46-27.54-31.6-27.54-10.49,0-19.8,5.07-25.62,12.89-5.81-7.82-15.12-12.89-25.62-12.89-16.11,0-29.42,11.94-31.59,27.46-15.73,1.97-27.9,15.38-27.9,31.64s11.08,28.44,25.76,31.31c-.02.47-.04.95-.04,1.43,0,17.62,14.28,31.9,31.9,31.9,10.49,0,19.8-5.07,25.62-12.89,5.81,7.82,15.12,12.89,25.62,12.89,17.62,0,31.9-14.28,31.9-31.9,0-.33-.01-.66-.02-.98,16.16-1.56,28.8-15.18,28.8-31.75Z"/></svg>