<?xml version="1.0" encoding="UTF-8"?><svg id="Layer_1" xmlns="http://www.w3.org/2000/svg" viewBox="0 0 200 200"><defs><style>.cls-1{fill:#231f20;}</style></defs><path class="cls-1" d="M146.45,75.51c-2.26,0-4.45.24-6.58.68-3.07-19.19-19.69-33.86-39.75-33.86s-36.5,14.51-39.7,33.54c-1.57-.24-3.18-.36-4.81-.36-17.62,0-31.9,14.28-31.9,31.9s14.28,31.9,31.9,31.9c1.96,0,3.88-.19,5.75-.53,5.02,16.52,20.37,28.54,38.53,28.54s33.78-12.25,38.66-29.01c2.53.65,5.18.99,7.91.99,17.62,0,31.9-14.28,31.9-31.9s-14.28-31.9-31.9-31.9Z"/></svg>