<?xml version="1.0" encoding="UTF-8"?><svg id="Layer_1" xmlns="http://www.w3.org/2000/svg" viewBox="0 0 200 200"><defs><style>.cls-1{fill:#231f20;}</style></defs><path class="cls-1" d="M103.05,146.79v-12.65c4.37,3.72,12.3,3.43,23.82-4.19,13.34-8.81,36.87-39.17,36.87-39.17,0,0-37.15,9.76-50.48,18.57-4.68,3.09-8.01,6.11-10.21,8.98v-14.92c4.41,3.53,12.27,3.11,23.6-4.37,13.34-8.81,36.87-39.17,36.87-39.17,0,0-37.15,9.76-50.48,18.57-.57.38-1.12.75-1.65,1.13.22-1.92.34-4.01.34-6.31,0-15.99-12.34-52.36-12.34-52.36,0,0-12.34,36.37-12.34,52.36,0,1.78.08,3.43.21,4.98-.16-.12-.31-.24-.48-.36-12.89-9.45-49.52-21-49.52-21,0,0,22.04,31.46,34.93,40.91,11.53,8.46,19.6,8.89,24.06,4.95v14.79c-2.06-2.76-5.08-5.69-9.24-8.74-12.89-9.45-49.52-21-49.52-21,0,0,22.04,31.46,34.93,40.91,11.34,8.31,19.34,8.87,23.84,5.14v15.43c-2-3.27-5.39-6.82-10.47-10.55-12.89-9.45-49.52-21-49.52-21,0,0,22.04,31.46,34.93,40.91,12.45,9.13,20.87,8.91,25.06,3.93v16.52h6.8v-14.14c4.56,2.74,12.08,1.88,22.6-5.07,13.34-8.81,36.87-39.17,36.87-39.17,0,0-37.15,9.76-50.48,18.57-3.88,2.57-6.84,5.08-8.99,7.5Z"/></svg>