<?xml version="1.0" encoding="UTF-8"?><svg id="Layer_1" xmlns="http://www.w3.org/2000/svg" viewBox="0 0 200 200"><defs><style>.cls-1{fill:#231f20;}</style></defs><path class="cls-1" d="M112.55,109.62c-4.32,3.1-7.3,6.09-9.17,8.89v-44.86c4.03,3.76,11.4,3.55,22-4.07,11.76-8.45,31.9-36.87,31.9-36.87,0,0-33.36,10.02-45.12,18.47-6.23,4.47-9.68,8.71-11.01,12.46-1.27-3.83-4.79-8.16-11.29-12.71-11.86-8.31-45.34-17.93-45.34-17.93,0,0,20.48,28.18,32.33,36.49,10.7,7.49,18.07,7.61,22.05,3.81v43.99c-1.91-2.51-4.74-5.17-8.64-7.9-11.86-8.31-45.34-17.93-45.34-17.93,0,0,20.48,28.18,32.33,36.49,10.34,7.24,17.58,7.61,21.65,4.18v36.54h4.49v-36.93c3.93,4.15,11.44,4.18,22.4-3.69,11.76-8.45,31.9-36.87,31.9-36.87,0,0-33.36,10.02-45.12,18.47Z"/></svg>