<?xml version="1.0" encoding="UTF-8"?><svg id="Layer_1" xmlns="http://www.w3.org/2000/svg" viewBox="0 0 200 200"><defs><style>.cls-1{fill:#231f20;}</style></defs><path class="cls-1" d="M132.29,85.3s0,0,0,0c2.82-5.14,4.42-11.03,4.42-17.31,0-19.92-16.15-36.06-36.06-36.06s-36.06,16.15-36.06,36.06c0,6.29,1.61,12.19,4.44,17.34-.44-.02-.87-.03-1.31-.03-19.92,0-36.06,16.15-36.06,36.06s16.15,36.06,36.06,36.06c14.15,0,26.38-8.15,32.29-20.01,5.91,11.86,18.14,20.01,32.29,20.01,19.92,0,36.06-16.15,36.06-36.06s-16.15-36.06-36.06-36.06Z"/></svg>