<?xml version="1.0" encoding="UTF-8"?><svg id="Layer_1" xmlns="http://www.w3.org/2000/svg" viewBox="0 0 200 200"><defs><style>.cls-1{fill:#231f20;}</style></defs><path class="cls-1" d="M173.48,82.74c0-17.55-14.22-31.77-31.77-31.77-3.65,0-7.15.62-10.41,1.75.03-.58.05-1.16.05-1.75,0-17.55-14.22-31.77-31.77-31.77s-31.77,14.22-31.77,31.77c0,.49.01.98.04,1.47-3.02-.95-6.23-1.47-9.56-1.47-17.55,0-31.77,14.22-31.77,31.77,0,14.49,9.7,26.7,22.96,30.52-4.05,5.33-6.45,11.98-6.45,19.18,0,17.55,14.22,31.77,31.77,31.77,9.88,0,18.71-4.51,24.54-11.59,5.83,7.08,14.66,11.59,24.54,11.59,17.55,0,31.77-14.22,31.77-31.77,0-7.07-2.32-13.61-6.23-18.89,13.82-3.45,24.05-15.94,24.05-30.82Z"/></svg>