<?xml version="1.0" encoding="UTF-8"?><svg id="Layer_1" xmlns="http://www.w3.org/2000/svg" viewBox="0 0 200 200"><defs><style>.cls-1{fill:#231f20;}</style></defs><path class="cls-1" d="M65.21,73.65c0,17.69-6.12,24.97-13.66,24.97s-13.66-7.28-13.66-24.97,13.66-57.95,13.66-57.95c0,0,13.66,40.26,13.66,57.95Z"/><path class="cls-1" d="M169.96,73.65c0,17.69-6.12,24.97-13.66,24.97s-13.66-7.28-13.66-24.97,13.66-57.95,13.66-57.95c0,0,13.66,40.26,13.66,57.95Z"/><path class="cls-1" d="M63.66,163.83c0,17.69-6.12,24.97-13.66,24.97s-13.66-7.28-13.66-24.97,13.66-57.95,13.66-57.95c0,0,13.66,40.26,13.66,57.95Z"/><path class="cls-1" d="M169.96,163.83c0,17.69-6.12,24.97-13.66,24.97s-13.66-7.28-13.66-24.97,13.66-57.95,13.66-57.95c0,0,13.66,40.26,13.66,57.95Z"/><path class="cls-1" d="M117.58,114.98c0,17.69-6.12,24.97-13.66,24.97s-13.66-7.28-13.66-24.97,13.66-57.95,13.66-57.95c0,0,13.66,40.26,13.66,57.95Z"/></svg>