<?xml version="1.0" encoding="UTF-8"?><svg id="Layer_1" xmlns="http://www.w3.org/2000/svg" viewBox="0 0 200 200"><defs><style>.cls-1{fill:#231f20;}</style></defs><path class="cls-1" d="M97.74,96.12c7.54,0,13.66-7.28,13.66-24.97s-13.66-57.95-13.66-57.95c0,0-13.66,40.26-13.66,57.95s6.12,24.97,13.66,24.97Z"/><path class="cls-1" d="M85.82,161.83c0,17.69,6.12,24.97,13.66,24.97s13.66-7.28,13.66-24.97-13.66-57.95-13.66-57.95c0,0-13.66,40.26-13.66,57.95Z"/><path class="cls-1" d="M142.97,62.42s-13.66,40.26-13.66,57.95,6.12,24.97,13.66,24.97,13.66-7.28,13.66-24.97-13.66-57.95-13.66-57.95Z"/><path class="cls-1" d="M43.37,120.37c0,17.69,6.12,24.97,13.66,24.97s13.66-7.28,13.66-24.97-13.66-57.95-13.66-57.95c0,0-13.66,40.26-13.66,57.95Z"/></svg>