<?xml version="1.0" encoding="UTF-8"?><svg id="Layer_1" xmlns="http://www.w3.org/2000/svg" viewBox="0 0 200 200"><defs><style>.cls-1{fill:#231f20;}</style></defs><path class="cls-1" d="M144,74.02s-7.85,55.05-20.4,53.92c-16.4-1.48,15.01-80.6,15.01-80.6-51.89,97.54-26.16-34.96-26.16-34.96,0,0-20.09,59.21-26.75,100.55-6.44-22.09-9.48-60.55-9.48-60.55,0,20.9-.11,135.24-21.19,54.27,0,0-1.03,80.98,57.43,80.98l-3.82-.32c.44.23,2.53.32,3.82.32,22.55,0,29.86-22.89,31.86-49.73,1.65-22.14-.31-46.97-.31-63.87Z"/></svg>