<?xml version="1.0" encoding="UTF-8"?><svg id="Layer_1" xmlns="http://www.w3.org/2000/svg" viewBox="0 0 200 200"><defs><style>.cls-1{fill:#231f20;}</style></defs><path class="cls-1" d="M143.19,49.77s-10.99,32.39-17.43,61.45c-6.5-39.24-25.25-94.5-25.25-94.5,0,0-19.17,56.5-25.46,95.81-6.4-29.38-17.72-62.76-17.72-62.76,0,0-22,64.82-22,93.31s9.85,40.2,22,40.2c8.77,0,16.34-6.11,19.87-20.23,4.84,14.06,13.47,20.23,23.31,20.23s18.13-5.94,23.03-19.43c3.62,13.54,11.06,19.43,19.66,19.43,12.15,0,22-11.72,22-40.2s-22-93.31-22-93.31Z"/></svg>