<?xml version="1.0" encoding="UTF-8"?><svg id="Layer_1" xmlns="http://www.w3.org/2000/svg" viewBox="0 0 200 200"><defs><style>.cls-1{fill:#231f20;}</style></defs><path class="cls-1" d="M100.08,54.95c2.83,0,5.12-2.73,5.12-9.36s-5.12-21.72-5.12-21.72c0,0-5.12,15.09-5.12,21.72s2.29,9.36,5.12,9.36Z"/><path class="cls-1" d="M170.2,123.22s-5.58,16.45-7.66,28.47c-1.55-15.28-10.59-41.94-10.59-41.94,0,0-6.15,18.11-9.17,33.04-1.97-21-14.68-58.46-14.68-58.46,0,0-7.47,22-11.84,41.74-4.42-26.65-17.15-64.18-17.15-64.18,0,0-13.02,38.38-17.3,65.08-4.35-19.96-12.04-42.63-12.04-42.63,0,0-11.38,33.54-14.28,54.94-3.19-14.1-8.42-29.52-8.42-29.52,0,0-8.25,24.3-10.34,39.8-2.43-11.4-6.92-24.63-6.92-24.63,0,0-8.44,24.86-8.44,35.79s3.78,15.42,8.44,15.42c3.64,0,6.73-2.76,7.91-9.16,1.88,5.88,5.35,8.47,9.34,8.47,4.57,0,8.48-3.39,10.06-11.26,2.65,7.53,7.31,10.84,12.63,10.84,5.96,0,11.1-4.15,13.5-13.74,3.29,9.55,9.15,13.74,15.84,13.74s12.32-4.04,15.64-13.2c2.46,9.2,7.51,13.2,13.35,13.2s10.96-4.04,13.4-13.35c1.21,9.66,5.43,13.77,10.46,13.77,4.64,0,8.58-3.49,10.12-11.59.97,7.43,4.24,10.59,8.14,10.59,4.66,0,8.44-4.49,8.44-15.42s-8.44-35.79-8.44-35.79Z"/></svg>