<?xml version="1.0" encoding="UTF-8"?><svg id="Layer_1" xmlns="http://www.w3.org/2000/svg" viewBox="0 0 200 200"><defs><style>.cls-1{fill:#231f20;}</style></defs><path class="cls-1" d="M158.49,90.07s-6.85,20.2-10.23,36.85c-2.2-23.42-16.38-65.2-16.38-65.2,0,0-8.33,24.54-13.21,46.55-4.92-29.72-19.13-71.59-19.13-71.59,0,0-14.52,42.81-19.29,72.58-4.85-22.26-13.43-47.54-13.43-47.54,0,0-12.69,37.41-15.92,61.27-3.56-15.73-9.39-32.92-9.39-32.92,0,0-12.07,35.57-12.07,51.2s5.4,22.06,12.07,22.06c5.1,0,9.45-3.78,11.22-12.56,2.95,8.4,8.16,12.1,14.09,12.1,6.65,0,12.38-4.63,15.06-15.33,3.67,10.65,10.21,15.33,17.66,15.33s13.74-4.5,17.44-14.72c2.74,10.26,8.38,14.72,14.9,14.72s12.22-4.51,14.94-14.89c1.35,10.77,6.05,15.35,11.67,15.35,6.67,0,12.07-6.43,12.07-22.06s-12.07-51.2-12.07-51.2Z"/></svg>