<?xml version="1.0" encoding="UTF-8"?><svg id="Layer_1" xmlns="http://www.w3.org/2000/svg" viewBox="0 0 200 200"><defs><style>.cls-1{fill:#231f20;}</style></defs><path class="cls-1" d="M158.66,111.29s-6.87,20.26-10.26,36.96c-2.21-23.49-16.43-65.4-16.43-65.4,0,0-8.35,24.62-13.25,46.69-4.94-29.81-19.19-71.8-19.19-71.8,0,0-14.57,42.94-19.35,72.8-4.86-22.32-13.47-47.69-13.47-47.69,0,0-12.73,37.52-15.97,61.46-3.57-15.78-9.42-33.02-9.42-33.02,0,0-12.11,35.67-12.11,51.35s5.42,22.13,12.11,22.13c5.12,0,9.48-3.8,11.25-12.6,2.96,8.43,8.18,12.13,14.13,12.13,6.67,0,12.42-4.65,15.1-15.38,3.68,10.68,10.24,15.38,17.72,15.38s13.78-4.51,17.5-14.76c2.75,10.29,8.4,14.76,14.94,14.76s12.26-4.52,14.99-14.94c1.35,10.8,6.07,15.4,11.7,15.4,6.69,0,12.11-6.45,12.11-22.13s-12.11-51.35-12.11-51.35Z"/><path class="cls-1" d="M100.65,49.99c3.16,0,5.73-3.05,5.73-10.47s-5.73-24.29-5.73-24.29c0,0-5.73,16.88-5.73,24.29s2.56,10.47,5.73,10.47Z"/></svg>