<?xml version="1.0" encoding="UTF-8"?><svg id="Layer_1" xmlns="http://www.w3.org/2000/svg" viewBox="0 0 200 200"><defs><style>.cls-1{fill:#231f20;}.cls-2{fill:#414042;}</style></defs><path class="cls-1" d="M154.12,99.7c-.31-.28-.63-.55-.94-.82.81-.74,1.6-1.52,2.36-2.34,14.41-15.65,13.39-40.02-2.26-54.43-15.65-14.41-40.02-13.39-54.43,2.26,0,0-.01.01-.02.02-.26-.26-.52-.52-.79-.77-15.65-14.41-40.02-13.39-54.43,2.26-14.41,15.65-13.39,40.02,2.26,54.43.31.28.63.55.94.82-.81.74-1.6,1.52-2.36,2.34-14.41,15.65-13.39,40.02,2.26,54.43,15.65,14.41,40.02,13.39,54.43-2.26,0,0,.01-.01.02-.02.26.26.52.52.79.77,15.65,14.41,40.02,13.39,54.43-2.26,14.41-15.65,13.39-40.02-2.26-54.43Z"/><path class="cls-2" d="M133.25,99.82c-.19-.17-.38-.34-.57-.5.49-.45.98-.92,1.44-1.43,8.77-9.53,8.15-24.37-1.38-33.14s-24.37-8.15-33.14,1.38c0,0,0,0-.01.01-.16-.16-.32-.31-.48-.47-9.53-8.77-24.37-8.15-33.14,1.38-8.77,9.53-8.15,24.37,1.38,33.14.19.17.38.34.57.5-.49.45-.98.92-1.44,1.43-8.77,9.53-8.15,24.37,1.38,33.14,9.53,8.77,24.37,8.15,33.14-1.38,0,0,0,0,.01-.01.16.16.32.31.48.47,9.53,8.77,24.37,8.15,33.14-1.38,8.77-9.53,8.15-24.37-1.38-33.14Z"/></svg>