<?xml version="1.0" encoding="UTF-8"?><svg id="Layer_1" xmlns="http://www.w3.org/2000/svg" viewBox="0 0 200 200"><defs><style>.cls-1{fill:#231f20;}.cls-2{fill:#8e8e8e;}.cls-3{fill:#ababab;}.cls-4{fill:#636464;}.cls-5{fill:#7b7b7b;}</style></defs><path class="cls-1" d="M184.34,99.17c0,46.58-37.76,84.34-84.34,84.34S15.66,145.75,15.66,99.17,53.42,14.84,100,14.84c23.25,0,31.63,25.31,46.89,40.52,15.31,15.27,37.45,20.48,37.45,43.81Z"/><path class="cls-4" d="M164.53,99.17c0,36.3-28.89,65.73-64.53,65.73s-64.53-29.43-64.53-65.73,28.89-65.73,64.53-65.73c17.79,0,24.2,19.72,35.88,31.58s28.65,15.96,28.65,34.15Z"/><path class="cls-5" d="M153.65,99.17c0,30.18-24.02,54.65-53.65,54.65s-53.65-24.47-53.65-54.65,24.02-54.65,53.65-54.65c14.79,0,20.12,16.4,29.83,26.26s23.82,13.27,23.82,28.39Z"/><path class="cls-2" d="M143.4,99.17c0,24.42-19.43,44.21-43.4,44.21s-43.4-19.8-43.4-44.21,19.43-44.21,43.4-44.21c11.97,0,16.28,13.27,24.13,21.25,7.88,8,19.27,10.74,19.27,22.97Z"/><path class="cls-3" d="M136.74,100.42c0,20.64-16.42,37.37-36.69,37.37s-36.69-16.73-36.69-37.37,16.42-37.37,36.69-37.37c10.11,0,13.76,11.21,20.4,17.96s16.29,9.08,16.29,19.41Z"/></svg>