<?xml version="1.0" encoding="UTF-8"?><svg id="Layer_1" xmlns="http://www.w3.org/2000/svg" viewBox="0 0 1920 1080"><defs><style>.cls-1{fill:#231f20;}</style></defs><path class="cls-1" d="M802.42,458.59c2.64,0,3.36-.64,4.16-.64.64,0,.56.48.4,1.2-2.32,7.12-4.16,15.36-5.2,20.64-.24.8-.48,1.28-.96,1.28-.4,0-.56-.4-.48-1.2.96-6.32,1.28-11.2.16-14.56-1.2-4.16-4.24-6.08-9.68-6.08-16.88,0-29.76,26.24-29.76,43.6,0,10.88,4,17.04,11.92,17.04,9.76,0,25.73-12.2,31.09-24.36.4-.96.64-1.36,1.12-1.36.24,0,.4.08.4.32s-.16.56-.32,1.04c-5.68,13.76-23.01,28.76-36.69,28.76-11.76,0-17.2-8.16-17.2-19.76,0-18.8,15.76-46.8,39.92-46.8,6.08,0,9.12.88,11.12.88Z"/><path class="cls-1" d="M798.82,510.35c0-15.2,11.52-30.96,23.36-30.96,7.12,0,11.92,5.52,11.92,13.92,0,15.12-11.52,30.8-23.44,30.8-7.04,0-11.84-5.28-11.84-13.76ZM811.38,521.79c6.88,0,14.96-18.96,14.96-31.76,0-4.88-1.44-8.32-4.8-8.32-6.88,0-14.88,19.12-14.88,31.92,0,4.8,1.28,8.16,4.72,8.16Z"/><path class="cls-1" d="M830.58,514.75c0-1.84,1.2-3.76,3.36-3.76,2,0,3.04,1.2,3.52,3.52.64,4.64,3.6,7.6,6.88,7.6,3.68,0,5.04-2.8,5.04-6.88,0-3.04-1.44-5.68-3.52-8.48l-2.08-3.36c-2.96-4.4-4.72-7.44-4.72-11.44,0-7.52,6.48-12.72,14.16-12.72,6.56,0,9.76,4.4,9.76,7.52,0,2.64-1.44,3.84-3.28,3.84-1.68,0-3.12-1.28-3.52-3.52-.4-3.44-2.08-5.76-5.12-5.76-3.28,0-5.44,2.24-5.44,6.4,0,2.72,1.44,5.44,3.68,8.64l2,3.28c3.12,4.64,4.72,7.76,4.72,11.6,0,7.28-5.76,12.88-13.44,12.88-6.32,0-12-4.24-12-9.36Z"/><path class="cls-1" d="M863.22,515.79c2.48-6.56,4.88-13.68,8.16-23.36,1.6-4.4,1.52-6.8-.24-6.8-2.16-.08-5.6,4.08-10.16,13.6-.48.96-.72,1.28-1.2,1.28s-.72-.32-.24-1.44c3.6-7.92,9.6-19.76,16.4-19.6,4.24.08,5.28,2.32,5.2,4.88,0,2-.96,4-2.56,8l-2.4,6.16c-.4,1.2-.16,1.52.32,1.52s.8-.32,1.28-1.2c6.72-12.32,11.52-19.36,17.28-19.36,3.2,0,4.96,2.56,4.96,5.44,0,3.52-2,7.36-4,12.08-.56,1.12-.4,1.44.08,1.44.4,0,.56-.16,1.2-1.28,6.32-11.2,11.12-17.68,16.72-17.68,3.76,0,5.36,2.4,5.36,5.84,0,4.88-4.08,13.76-8.96,26.16-1.84,4.32-1.92,6.64-.16,6.8,2.16.16,10.45-6.75,15.41-16.03.56-.96.88-1.28,1.28-1.2.56,0,.72.32.16,1.44-3.92,7.76-15.09,22.19-21.89,21.71-4.24-.24-5.12-2.56-4.96-5.12.08-2,.8-4.08,2.32-8.08,4.24-10.64,8.48-20.16,8.48-23.28,0-1.76-.48-2.56-1.68-2.56-4.64,0-13.36,13.92-17.04,25.12-2.32,6.64-1.28,8.72-1.6,10.32-.32,2.16-2.96,3.52-5.44,3.52-3.84,0-5.76-2-3.36-8.32,3.52-8.8,10.48-23.52,10.48-28.08,0-1.76-.56-2.56-1.68-2.56-2.96,0-11.52,9.44-17.04,25.12-2.4,6.64-1.36,8.72-1.68,10.32-.32,2.16-2.96,3.52-5.44,3.52-3.84,0-5.76-2-3.36-8.32Z"/><path class="cls-1" d="M922.5,510.35c0-15.2,11.52-30.96,23.36-30.96,7.12,0,11.92,5.52,11.92,13.92,0,15.12-11.52,30.8-23.44,30.8-7.04,0-11.84-5.28-11.84-13.76ZM935.06,521.79c6.88,0,14.96-18.96,14.96-31.76,0-4.88-1.44-8.32-4.8-8.32-6.88,0-14.88,19.12-14.88,31.92,0,4.8,1.28,8.16,4.72,8.16Z"/><path class="cls-1" d="M947.46,540.99c-.64,0-.96-.16-.96-.72,0-.48.32-.64.96-.64,4.4,0,7.36-1.2,9.44-7.76l12.08-38.08c.32-.96-.08-1.2-.88-.48-1.84,2.08-8.05,6.68-12.13,9.8-1.52,1.2-2.32-.48-1.2-1.36,6.88-4.96,12.93-10.28,15.89-13.4.96-3.68,2-7.28,3.2-12.56.88-3.52,2.48-4.8,4.64-4.8,2.8,0,3.36,2.16,3.12,4.32-.48,3.04-3.6,10.16-4.64,13.36l-3.12,9.44c-.32.8-.16,1.28.24,1.28.32,0,.64-.16,1.12-1.2,3.76-7.36,10.72-18.72,17.04-18.72,3.92,0,6.64,3.6,6.64,10.4,0,14.4-10.8,33.68-22.24,33.68-3.2,0-5.92-1.76-6.96-3.12-.64-.56-1.2-.48-1.52.64l-3.36,10.8c-2.08,6.56,1.68,7.76,8.08,7.76,1.12,0,1.52.16,1.52.64s-.4.72-1.6.72c-3.76,0-9.28-.4-13.2-.4h-3.92c-2.4,0-5.36.4-8.24.4ZM976.18,521.55c6.88,0,14.8-18.8,14.8-29.92,0-3.68-.48-6-2.8-6-4.8,0-12.96,11.36-16.48,23.2l-1.04,3.44c-1.12,3.92,1.68,9.28,5.52,9.28Z"/><path class="cls-1" d="M998.58,510.35c0-15.2,11.52-30.96,23.36-30.96,7.12,0,11.92,5.52,11.92,13.92,0,15.12-11.52,30.8-23.44,30.8-7.04,0-11.84-5.28-11.84-13.76ZM1011.14,521.79c6.88,0,14.96-18.96,14.96-31.76,0-4.88-1.44-8.32-4.8-8.32-6.88,0-14.88,19.12-14.88,31.92,0,4.8,1.28,8.16,4.72,8.16Z"/><path class="cls-1" d="M1042.9,517.55c2.16,0,4.38-6.36,8.78-15.96.48-.96.8-1.28,1.2-1.28.56,0,.72.32.24,1.44-3.44,7.92-8.14,22.04-14.94,22.04-4.24-.08-5.28-2.24-5.28-4.88,0-1.92.64-4.08,2-8.16l14.08-43.44c1.36-4.16,1.6-6.24-1.76-6.24-1.44,0-3.04.16-4.16.16-.72,0-1.2-.16-1.2-.64,0-.56.48-.8,1.44-.8,2.8,0,9.04-.64,11.92-1.84,1.92-.64,3.6-1.36,4.64-1.36.88,0,.96.4.56,1.44-2.8,7.36-6.4,16.08-8.32,22.48l-9.52,30.16c-1.52,4.48-1.44,6.8.32,6.88Z"/><path class="cls-1" d="M1063.7,485.47c-2.16-.08-5.68,6.19-10.32,15.71-.48.96-.72,1.28-1.2,1.2-.48,0-.72-.32-.24-1.44,3.68-7.84,9.76-21.79,16.56-21.55,4.24.16,5.28,2.32,5.2,4.96-.08,2-.72,4.08-2.16,8.08l-6.48,18.64c-1.6,4.4-1.6,6.72.16,6.8,2.16.08,12.49-10.33,17.13-19.85.48-.88.8-1.2,1.28-1.2s.64.32.16,1.44c-3.68,7.84-16.65,25.93-23.37,25.69-4.32-.16-5.28-2.32-5.2-4.96.08-2,.64-4.08,2.08-8.16l6.56-18.48c1.6-4.4,1.6-6.8-.16-6.88ZM1074.26,461.55c3.04,0,5.04,1.92,5.04,4.96s-2,4.96-5.04,4.96-5.2-2-5.2-4.96,2.08-4.96,5.2-4.96Z"/><path class="cls-1" d="M1084.1,515.95c0,1.52.72,2.4,2.4,2.4,3.36,0,9.97-7.4,14.21-16.52.24-.56.64-.72.88-.72.4,0,.72.4.4,1.12-3.6,9.04-13.65,21.48-20.77,21.48-3.84,0-5.44-2.32-5.44-5.6,0-2.08.72-4.56,1.76-7.52l9.36-26.72c.32-1.04.24-1.92-1.2-1.92h-5.04c-.56,0-.8-.32-.8-.56,0-.4.48-.8,1.12-.8,8.56,0,13.28-3.68,16.96-10.88.24-.48.72-.72,1.04-.72.48,0,.72.32.64.72l-3.12,8.72c-.48,1.36-.4,2.48,1.28,2.48,2.64,0,5.2-.64,7.36-.64.64,0,.96.48.96.88,0,.56-.48,1.12-1.36,1.12h-7.6c-1.04,0-2.08.48-2.56,1.92l-9.12,26.48c-.56,1.52-1.36,4-1.36,5.28Z"/><path class="cls-1" d="M1098.1,513.39c0-14.24,12.8-33.92,24-33.92,4.08,0,5.92,2.72,6.72,6.72.24,1.76.88,1.84,1.52.16l.56-1.76c.56-1.36,1.12-2,2.56-2,2.8,0,4.64-3.6,6.4-3.6.72,0,1.28.48.8,1.36-3.12,6.72-6.32,13.44-8.72,21.04l-3.12,9.36c-1.6,4.4-1.52,6.8.24,6.8,2.16,0,3.65-5.16,8.05-14.76.48-.96.8-1.28,1.2-1.28.56,0,.72.32.24,1.44-3.44,8-7.33,20.84-14.13,20.84-4.24-.08-5.28-2.24-5.28-4.88,0-1.92.88-4,2.4-8l1.04-2.88c.32-.96.08-1.44-.4-1.44-.56,0-1.04.4-1.44,1.2-2.88,5.52-8.72,16.24-15.28,16.24-4.88,0-7.36-4.48-7.36-10.64ZM1109.14,517.95c5.04,0,12-10.64,15.44-20.08,1.28-3.92,1.92-7.12,1.92-9.76,0-4-.96-6.32-3.6-6.32-7.84,0-16.72,18.88-16.72,30.24,0,4.32,1.04,5.92,2.96,5.92Z"/><path class="cls-1" d="M1150.02,485.47c-2.16-.08-6.54,7.47-11.18,16.91-.48.96-.8,1.28-1.2,1.28-.56,0-.72-.4-.24-1.44,3.68-7.92,10.7-23.07,17.42-22.83,4.32.08,5.28,2.32,5.2,4.96-.08,2-1.04,3.92-2.64,7.92l-2.24,5.68c-.4,1.12-.16,1.52.24,1.52s.88-.32,1.36-1.2c6.72-12.32,12-18.8,17.76-18.8,3.92,0,5.92,2.4,5.92,5.84,0,4.88-4.08,13.76-9.04,26.08-1.84,4.4-1.92,6.72-.16,6.88,2.16.08,5.36-3.92,10.32-13.28.48-.96.8-1.2,1.28-1.2s.64.4.16,1.44c-3.92,7.76-9.92,19.44-16.72,18.96-4.24-.24-5.2-2.56-5.04-5.12.08-2,.8-4.08,2.32-8.08,4.32-10.64,8.56-20.16,8.56-23.28,0-1.76-.56-2.56-1.68-2.56-3.68,0-12.24,8.32-18.16,24.96-2,5.76-1.12,8.88-1.44,10.48-.32,2.16-2.96,3.52-5.44,3.52-3.44,0-5.52-2-3.36-8.32l8.16-23.52c1.6-4.4,1.6-6.72-.16-6.8Z"/></svg>